<?xml version="1.0" encoding="UTF-8" standalone="no"?>
<!-- Created with Inkscape (http://www.inkscape.org/) -->

<svg
   width="50mm"
   height="50mm"
   viewBox="0 0 50.000001 50"
   version="1.1"
   id="svg1"
   inkscape:export-filename="lipusewiblackcremehires.png"
   inkscape:export-xdpi="300"
   inkscape:export-ydpi="300"
   inkscape:version="1.2.2 (b0a8486541, 2022-12-01)"
   sodipodi:docname="favicon.svg"
   xmlns:inkscape="http://www.inkscape.org/namespaces/inkscape"
   xmlns:sodipodi="http://sodipodi.sourceforge.net/DTD/sodipodi-0.dtd"
   xmlns="http://www.w3.org/2000/svg"
   xmlns:svg="http://www.w3.org/2000/svg">
  <sodipodi:namedview
     id="namedview1"
     pagecolor="#ffffff"
     bordercolor="#000000"
     borderopacity="0.25"
     inkscape:showpageshadow="2"
     inkscape:pageopacity="0.0"
     inkscape:pagecheckerboard="0"
     inkscape:deskcolor="#d1d1d1"
     inkscape:document-units="mm"
     inkscape:zoom="3.1678732"
     inkscape:cx="90.91273"
     inkscape:cy="84.125842"
     inkscape:window-width="1920"
     inkscape:window-height="1018"
     inkscape:window-x="0"
     inkscape:window-y="0"
     inkscape:window-maximized="1"
     inkscape:current-layer="layer4"
     showgrid="false" />
  <defs
     id="defs1">
    <linearGradient
       id="swatch14"
       inkscape:swatch="solid">
      <stop
         style="stop-color:#977200;stop-opacity:1;"
         offset="0"
         id="stop14" />
    </linearGradient>
    <linearGradient
       id="swatch7"
       inkscape:swatch="solid">
      <stop
         style="stop-color:#1a1a1a;stop-opacity:1;"
         offset="0"
         id="stop7" />
    </linearGradient>
  </defs>
  <g
     inkscape:groupmode="layer"
     id="layer4"
     inkscape:label="Canvas"
     transform="translate(-12.210335,-33.85545)">
    <rect
       style="display:inline;fill:#fff1cc;fill-opacity:0.9;stroke:none;stroke-width:0.065028;stroke-opacity:1"
       id="rect20"
       width="23.125114"
       height="31.606543"
       x="36.634277"
       y="-56.471775"
       transform="matrix(-2.9121766e-4,0.99999996,-0.99999995,-3.076559e-4,0,0)" />
    <rect
       style="display:inline;fill:#fff1cc;fill-opacity:0.9;stroke:none;stroke-width:0.065028;stroke-opacity:1"
       id="rect20-6"
       width="23.125114"
       height="31.606543"
       x="53.06279"
       y="-54.092754"
       transform="matrix(-2.9121766e-4,0.99999996,-0.99999995,-3.076559e-4,0,0)" />
    <rect
       style="display:inline;fill:#fff1cc;fill-opacity:0.9;stroke:none;stroke-width:0.0373447;stroke-opacity:1"
       id="rect20-6-3"
       width="21.54879"
       height="11.186514"
       x="60.405083"
       y="-31.321686"
       transform="matrix(-1.106105e-4,0.99999999,-0.99999967,-8.1000272e-4,0,0)" />
    <rect
       style="display:inline;fill:#fff1cc;fill-opacity:0.9;stroke:none;stroke-width:0.0186453;stroke-opacity:1"
       id="rect20-6-3-5"
       width="10.103263"
       height="5.9475899"
       x="67.737587"
       y="-24.85968"
       transform="matrix(-1.254307e-4,0.99999999,-0.99999974,-7.1429736e-4,0,0)" />
    <rect
       style="display:inline;fill:#fff1cc;fill-opacity:0.9;stroke:none;stroke-width:0.0169712;stroke-opacity:1"
       id="rect20-6-3-5-6"
       width="4.5658693"
       height="10.903546"
       x="36.696556"
       y="-26.376705"
       transform="matrix(-5.0882554e-4,0.99999987,-0.99999998,-1.7608163e-4,0,0)" />
    <rect
       style="display:inline;fill:#fff1cc;fill-opacity:0.9;stroke:none;stroke-width:0.0313485;stroke-opacity:1"
       id="rect20-6-7"
       width="4.766458"
       height="35.636719"
       x="76.680016"
       y="-62.407162"
       transform="matrix(-0.03004925,0.99954842,-1,-5.621605e-5,0,0)" />
  </g>
  <g
     inkscape:groupmode="layer"
     id="layer2"
     inkscape:label="Hintergrund"
     style="display:none"
     transform="translate(-12.210335,-33.85545)">
    <circle
       style="fill:#ffffff;fill-opacity:1;stroke:none;stroke-width:0.36704;stroke-opacity:1"
       id="path3-4"
       cx="55"
       cy="55"
       inkscape:label="bgcolor"
       r="54.816479" />
    <circle
       style="display:inline;mix-blend-mode:normal;fill:#fff1cc;fill-opacity:0.9;stroke:none;stroke-width:1.00335"
       id="path3"
       cx="55"
       cy="55"
       inkscape:label="color"
       r="55" />
  </g>
  <g
     inkscape:label="Logo"
     inkscape:groupmode="layer"
     id="layer1"
     transform="translate(-51.949792,-68.719655)">
    <path
       style="fill:#000000;fill-opacity:1;stroke-width:0.316757"
       d="m 62.622436,118.34063 c -2.505077,-0.48968 -4.712652,-2.16799 -5.717149,-4.3465 -1.360421,-2.95039 -0.590117,-8.90015 2.850613,-21.462083 1.990445,-7.267011 3.750023,-11.661574 3.036271,-15.687479 -0.114614,-0.646467 -0.0036,-0.322719 -5.870038,0.805209 -3.937464,0.75705 -4.568058,0.302938 -4.568058,-1.330494 0,-3.211138 1.587566,-6.592485 5.180003,-7.267467 1.244154,-0.233767 34.945683,-0.233516 36.186628,2.62e-4 2.580524,0.486148 4.285332,1.573887 5.052676,4.391855 0.830698,3.050567 -1.334815,18.419786 -2.102383,21.210953 -0.764722,2.780762 -2.007763,9.623014 -2.233257,13.553484 -0.03059,0.53268 -0.07747,1.90823 -0.106554,2.08126 -0.0529,0.31461 0.935022,0.16421 2.388625,0.18859 4.330227,0.0726 5.032267,-0.63428 4.989107,0.52782 -0.27745,3.28152 -0.69891,6.12652 -4.224535,6.79072 -1.18575,0.22339 -33.716379,0.76778 -34.861911,0.54387 z m 3.01344,-1.79382 c 2.126556,-0.41185 4.374816,-2.32684 3.493973,-4.09591 -0.779371,-1.56528 -0.589282,-1.68695 10.009442,-1.68695 9.019347,0 12.788279,0.18078 13.260365,-0.36325 0.154981,-0.1786 -0.444783,-0.67388 -0.60825,-2.53633 -0.08525,-0.9715 1.726746,-8.54778 2.238308,-13.220861 0.968556,-8.847609 1.848419,-13.266102 1.903326,-19.606481 0.02858,-3.292259 -2.420716,-3.447536 -4.836532,-3.558702 -0.410574,-0.01887 -4.456923,0.75354 -13.781078,0.75354 -13.045734,0 -12.825434,-0.476395 -12.630972,0.214765 1.139832,4.051139 2.971052,8.635382 -2.173242,22.046827 -4.20474,10.961982 -3.67895,16.409282 -2.513567,18.679842 0.874334,1.70348 3.564356,3.77516 5.638227,3.37351 z m -5.194784,-12.79048 c 0,-0.20431 0.187356,-0.35989 1.086202,-0.90204 0.783476,-0.47256 2.658186,-1.7725 3.417354,-2.36964 1.661619,-1.306975 2.378207,-1.946925 3.103935,-2.771982 0.766387,-0.871282 1.049824,-1.266272 2.066597,-2.879936 0.713374,-1.132169 0.965157,-0.679612 0.34981,0.628757 -0.824228,1.752477 0.313079,3.427778 2.095856,3.087292 2.039764,-0.389571 3.159563,-1.511187 4.807911,-4.815736 1.207387,-2.42053 1.517222,-2.219211 0.797829,0.518401 -0.63074,2.400237 1.217667,3.959135 3.236486,2.729576 1.327781,-0.808684 1.570914,-1.261276 1.700359,-3.165187 0.03798,-0.559036 0.109562,-1.214102 0.159117,-1.455701 0.08976,-0.43799 2.157163,-4.398599 2.353938,-4.509515 0.297074,-0.167453 0.33724,0.174828 0.157614,1.342933 -0.100287,0.652184 -0.209236,1.512501 -0.242079,1.911813 -0.146181,1.776898 -2.105931,6.287065 -3.701527,8.518636 -2.38647,3.337709 -6.105735,3.351769 -6.105735,0.0231 0,-0.838937 -0.129796,-0.768931 -0.867404,0.467849 -2.276516,3.81714 -6.409747,4.47974 -6.904546,1.10688 -0.140665,-0.95885 -0.156074,-0.96714 -0.687159,-0.36976 -0.921192,1.0362 -1.303284,1.35556 -1.808806,1.51182 -0.27772,0.0858 -0.815395,0.25013 -1.194832,0.36507 -0.379439,0.11495 -1.31079,0.40261 -2.069666,0.63924 -0.758877,0.23662 -1.463358,0.45442 -1.565515,0.48397 -0.122175,0.0354 -0.185739,0.002 -0.185739,-0.0958 z m 27.438711,-2.77354 c -0.03598,-0.0531 0.02821,-0.37257 0.142495,-0.71009 0.114327,-0.337528 0.240488,-0.828478 0.280402,-1.091001 0.03986,-0.262533 0.136264,-0.716908 0.214112,-1.00974 0.07784,-0.29282 0.170851,-0.793775 0.20669,-1.113225 0.06945,-0.619198 0.476362,-3.305738 1.06295,-7.018207 0.197677,-1.251169 0.389049,-2.601568 0.425253,-3.000879 0.03623,-0.399311 0.10856,-0.943827 0.160684,-1.210042 0.05214,-0.266203 0.149439,-0.876061 0.216168,-1.355234 0.242366,-1.740518 0.673687,-2.933548 2.073136,-5.734387 0.617377,-1.235608 0.887862,-0.501926 0.482528,1.308861 -0.11583,0.517338 -0.242116,1.158432 -0.280701,1.424636 -0.03861,0.266215 -0.11182,0.636485 -0.162791,0.822827 -0.132465,0.484491 -1.692298,9.854776 -1.692298,10.166028 0,0.142632 -0.123227,0.756011 -0.273757,1.363032 -0.150581,0.607034 -0.363013,1.480626 -0.472086,1.941301 -0.500155,2.11248 -2.105116,5.62587 -2.382785,5.21612 z m 9.52142,13.58626 c 1.467907,-0.35645 2.488674,-1.50317 2.008715,-2.21943 -0.152824,-0.22804 -28.345159,-0.005 -27.978631,0.54518 0.28931,0.43349 -0.03189,1.6087 -0.436332,2.18535 -0.362131,0.51631 -0.362131,0.51631 12.770949,0.51517 10.802893,-9.2e-4 13.184486,-0.9168 13.635299,-1.02627 z M 62.294271,74.527887 c -1.028217,-3.128532 -4.729528,-4.39055 -6.422777,-0.362484 -0.456577,1.086149 0.434714,1.384424 1.928232,1.295872 1.397541,-0.08289 4.56613,-0.715581 4.494545,-0.933388 z"
       id="path1"
       sodipodi:nodetypes="ssssssssssssscsssssssssssssssscssssssssssssscsssssssssccssssssssssssssssscsssccssss"
       inkscape:label="lipu sewi" />
  </g>
</svg>
